{"title":"The Heavy (2010) DvdRip Xvid {1337x}-X","uid":6051056,"size":735105024,"categoryP":"video","categoryS":"movies","magnet":"?xt=urn:btih:07d9f7a93a1959fae5f23879c155e3666a413470&amp;dn=The+Heavy+%282010%29+DvdRip+Xvid+%7B1337x%7D-X&amp;tr=udp%3A%2F%2Ftracker.openbittorrent.com%3A80&amp;tr=udp%3A%2F%2Fopen.demonii.com%3A1337&amp;tr=udp%3A%2F%2Ftracker.coppersurfer.tk%3A6969&amp;tr=udp%3A%2F%2Fexodus.desync.com%3A6969","seeders":1,"leechers":0,"uploader":".BONE.","files":1,"time":1292726886,"description":"Video\n\nCodec ID/Hint : XviD\nDuration : 1h 41mn\nBit rate : 849 Kbps\nWidth : 624 pixels\nHeight : 336 pixels\nDisplay aspect ratio : 1.857\nFrame rate : 23.976 fps\nColor space : YUV\nChroma subsampling : 4:2:0\nBit depth : 8 bits\nScan type : Progressive\nBits/(Pixel*Frame) : 0.169\nStream size : 617 MiB (88%)\nWriting library : XviD 57\n\n\nCodec ID/Hint : MP3\nDuration : 1h 41mn\nBit rate mode : Variable\nBit rate : 104 Kbps\nNominal bit rate : 112 Kbps\nChannel(s) : 2 channels\nSampling rate : 48.0 KHz\nStream size : 75.2 MiB (11%)\nAlignment : Aligned on interleaves\nInterleave, duration : 24 ms (0.58 video frame)\nInterleave, preload duration : 177 ms\nWriting library : LAME3.97\nEncoding settings : -m j -V 4 -q 2 -lowpass 16 --abr 112\n\n\nIMDB &lt;a href=&quot;\nhttp://www.imdb.com/title/tt0473364/&quot; rel=&quot;nofollow&quot; target=&quot;_NEW&quot;&gt;\nhttp://www.imdb.com/title/tt0473364/&lt;/a&gt;\n\nShout out to noir and all my freinds @ 1337x.org and extratorrent\n &lt;a href=&quot;\nhttp://leetleech.org/images/31138643425474009098.jpg&quot; rel=&quot;nofollow&quot; target=&quot;_NEW&quot;&gt;\nhttp://leetleech.org/images/31138643425474009098.jpg&lt;/a&gt;","torrent":{"xt":"urn:btih:07d9f7a93a1959fae5f23879c155e3666a413470","amp;dn":"The+Heavy+%282010%29+DvdRip+Xvid+%7B1337x%7D-X","amp;tr":["udp%3A%2F%2Ftracker.openbittorrent.com%3A80","udp%3A%2F%2Fopen.demonii.com%3A1337","udp%3A%2F%2Ftracker.coppersurfer.tk%3A6969","udp%3A%2F%2Fexodus.desync.com%3A6969"],"infoHash":"07d9f7a93a1959fae5f23879c155e3666a413470","infoHashBuffer":{"type":"Buffer","data":[7,217,247,169,58,25,89,250,229,242,56,121,193,85,227,102,106,65,52,112]},"announce":[],"urlList":[]}}